<svg version="1.1" xmlns="http://www.w3.org/2000/svg" viewBox="0 0 1155.0153922874572 1405.2053214670902" width="1155.0153922874572" height="1405.2053214670902">
  <!-- svg-source:excalidraw -->
  
  <defs>
    <style class="style-fonts">
      @font-face {
        font-family: "Virgil";
        src: url("https://excalidraw.com/Virgil.woff2");
      }
      @font-face {
        font-family: "Cascadia";
        src: url("https://excalidraw.com/Cascadia.woff2");
      }
      @font-face {
        font-family: "Assistant";
        src: url("https://excalidraw.com/Assistant-Regular.woff2");
      }
    </style>
    
  </defs>
  <rect x="0" y="0" width="1155.0153922874572" height="1405.2053214670902" fill="#ffffff"></rect><g stroke-linecap="round" transform="translate(366.5278892464005 107.37279878872357) rotate(0 92.95516519522937 44.36475319552159)"><path d="M60.86 1.2 C72.5 -1.66, 89.7 -1.27, 103.47 -0.18 C117.24 0.9, 131.86 4.26, 143.5 7.7 C155.14 11.14, 166.53 15.08, 173.29 20.46 C180.05 25.83, 182.82 33.49, 184.06 39.96 C185.29 46.43, 184.72 53.3, 180.69 59.26 C176.67 65.22, 169.4 70.91, 159.89 75.71 C150.38 80.52, 136.29 85.77, 123.62 88.09 C110.95 90.41, 97.33 90.84, 83.89 89.62 C70.45 88.41, 54.72 84.11, 43 80.82 C31.27 77.53, 20.29 75.21, 13.54 69.88 C6.8 64.56, 4.14 55.6, 2.52 48.87 C0.89 42.14, -0.32 35.18, 3.79 29.5 C7.89 23.83, 13.22 19.69, 27.16 14.82 C41.11 9.95, 72.65 2.07, 87.45 0.27 C102.25 -1.53, 115.69 3.19, 115.99 4.03 M62.92 0.99 C74.23 -1.69, 91.85 -2.35, 105.1 -1.09 C118.36 0.18, 130.69 4.63, 142.43 8.56 C154.18 12.5, 168.16 16.67, 175.59 22.53 C183.02 28.38, 186.52 37.74, 187.03 43.69 C187.54 49.64, 184.02 53.04, 178.66 58.22 C173.3 63.4, 164.17 70.19, 154.88 74.77 C145.58 79.34, 135.3 83.46, 122.89 85.66 C110.47 87.86, 94.42 88.86, 80.39 87.97 C66.36 87.09, 50.48 84.1, 38.71 80.37 C26.94 76.64, 16.37 71.22, 9.77 65.6 C3.17 59.98, -0.16 52.82, -0.89 46.65 C-1.62 40.49, -0.17 34, 5.37 28.63 C10.91 23.26, 22.28 19.13, 32.34 14.45 C42.41 9.76, 60.47 2.09, 65.78 0.51 C71.08 -1.08, 63.62 3.66, 64.17 4.92" stroke="none" stroke-width="0" fill="#b2f2bb"></path><path d="M21.83 14.36 C29.49 9, 44.8 4.03, 57.23 1.82 C69.66 -0.4, 83.37 0.45, 96.41 1.07 C109.45 1.7, 123.23 2.99, 135.46 5.56 C147.7 8.12, 161.49 11.5, 169.81 16.44 C178.14 21.39, 183.46 28.54, 185.43 35.24 C187.41 41.94, 185.66 50.25, 181.68 56.66 C177.7 63.07, 170.29 68.68, 161.57 73.7 C152.85 78.73, 141.72 84.28, 129.34 86.83 C116.96 89.38, 100.83 89.72, 87.3 88.99 C73.77 88.26, 59.54 85.39, 48.17 82.46 C36.81 79.53, 26.84 76.15, 19.1 71.39 C11.36 66.64, 4.15 60.15, 1.72 53.95 C-0.71 47.74, 0.21 41.21, 4.54 34.18 C8.88 27.14, 22.89 15.47, 27.73 11.74 C32.57 8.02, 32.76 11.28, 33.58 11.82 M50.95 2.03 C62.14 -0.99, 79.46 0.14, 93.04 0.22 C106.61 0.29, 119.85 -0.51, 132.42 2.47 C144.98 5.46, 159.77 12.86, 168.42 18.12 C177.07 23.37, 181.53 28.12, 184.34 34.01 C187.14 39.91, 188.75 47.58, 185.23 53.49 C181.7 59.4, 171.74 64.11, 163.2 69.49 C154.66 74.87, 145.39 82.34, 133.96 85.76 C122.54 89.19, 108.12 89.85, 94.66 90.03 C81.2 90.22, 65.44 90.15, 53.19 86.87 C40.94 83.59, 29.88 75.44, 21.16 70.33 C12.44 65.22, 3.97 61.94, 0.88 56.22 C-2.21 50.5, -0.65 42.94, 2.64 36.01 C5.93 29.08, 12.49 19.61, 20.62 14.62 C28.75 9.63, 45.56 7.79, 51.41 6.06 C57.27 4.34, 54.73 4.39, 55.74 4.29" stroke="#2f9e44" stroke-width="2" fill="none"></path></g><g transform="translate(382.62257459403077 126.0174670768566) rotate(0 80.84155777738579 28.465339964473046)"><text x="80.84155777738579" y="0" font-family="Virgil, Segoe UI Emoji" font-size="45.54454394315687px" fill="#2f9e44" text-anchor="middle" style="white-space: pre;" direction="ltr" dominant-baseline="text-before-edge">START</text></g><g stroke-linecap="round"><g transform="translate(462.0048325647115 214.66305520114275) rotate(0 0.102661590329717 20.58833662593115)"><path d="M0.73 0.43 C0.86 7.48, 0.08 35.16, -0.05 41.82 M-0.34 -0.39 C-0.32 6.35, -1.03 33.09, -1.13 40.03" stroke="#1e1e1e" stroke-width="2" fill="none"></path></g><g transform="translate(462.0048325647115 214.66305520114275) rotate(0 0.102661590329717 20.58833662593115)"><path d="M-7.05 20.11 C-5.24 24.55, -6.11 27.87, -1.85 38.23 M-7.76 20.15 C-4.82 27.78, -4.03 33.11, -1.51 39.77" stroke="#1e1e1e" stroke-width="2" fill="none"></path></g><g transform="translate(462.0048325647115 214.66305520114275) rotate(0 0.102661590329717 20.58833662593115)"><path d="M7.03 20.41 C5.59 24.87, 1.47 28.12, -1.85 38.23 M6.32 20.44 C4.74 27.96, 1.01 33.19, -1.51 39.77" stroke="#1e1e1e" stroke-width="2" fill="none"></path></g></g><mask></mask><g transform="translate(258.52782518762183 10) rotate(0 206.67984008789062 37.5)"><text x="206.67984008789062" y="0" font-family="Virgil, Segoe UI Emoji" font-size="20px" fill="#1e1e1e" text-anchor="middle" style="white-space: pre;" direction="ltr" dominant-baseline="text-before-edge">Building and publishing a new Docker image</text><text x="206.67984008789062" y="25" font-family="Virgil, Segoe UI Emoji" font-size="20px" fill="#1e1e1e" text-anchor="middle" style="white-space: pre;" direction="ltr" dominant-baseline="text-before-edge">from scratch </text><text x="206.67984008789062" y="50" font-family="Virgil, Segoe UI Emoji" font-size="20px" fill="#1e1e1e" text-anchor="middle" style="white-space: pre;" direction="ltr" dominant-baseline="text-before-edge">....without installing anything</text></g><g stroke-linecap="round" transform="translate(364.6620916190989 274.69594961506004) rotate(0 101.79545192817602 26.8029251477263)"><path d="M13.4 0 C82.59 -3.58, 149.44 1.67, 190.19 0 C197.38 -3.38, 204.96 6.41, 203.59 13.4 C203.11 22.49, 205.13 35.25, 203.59 40.2 C201.24 46.97, 203.79 53.57, 190.19 53.61 C149 52.51, 103.84 55.97, 13.4 53.61 C6.57 53.32, 4.17 53.12, 0 40.2 C0.89 30.91, 4.81 30.07, 0 13.4 C-1.04 9.54, -0.95 4.98, 13.4 0" stroke="none" stroke-width="0" fill="#a5d8ff"></path><path d="M13.4 0 C72.9 2.45, 129.02 2.28, 190.19 0 M13.4 0 C55.09 -2.96, 98.56 -3.28, 190.19 0 M190.19 0 C195.27 1.62, 207.55 4.88, 203.59 13.4 M190.19 0 C196.72 0.91, 207.92 4.61, 203.59 13.4 M203.59 13.4 C203.05 17.65, 200.8 23.03, 203.59 40.2 M203.59 13.4 C202.58 24.12, 204.15 33.79, 203.59 40.2 M203.59 40.2 C206.3 53.02, 196.04 53.99, 190.19 53.61 M203.59 40.2 C201.67 46.12, 196.81 53.61, 190.19 53.61 M190.19 53.61 C141.82 55.56, 91.43 52.68, 13.4 53.61 M190.19 53.61 C150.66 51.15, 113.73 51.36, 13.4 53.61 M13.4 53.61 C3.29 56.86, -3.84 45.95, 0 40.2 M13.4 53.61 C2.19 52.66, 0.43 51.06, 0 40.2 M0 40.2 C-1.86 29.56, -3.37 30.02, 0 13.4 M0 40.2 C-2.15 28.49, -2.07 20.63, 0 13.4 M0 13.4 C1.08 3.22, 1 3, 13.4 0 M0 13.4 C2.27 4.4, 2.05 -2.97, 13.4 0" stroke="#1e1e1e" stroke-width="2" fill="none"></path></g><g transform="translate(378.96769666090495 274.97369563308223) rotate(0 86.23993682861328 25)"><text x="86.23993682861328" y="0" font-family="Virgil, Segoe UI Emoji" font-size="20px" fill="#1e1e1e" text-anchor="middle" style="white-space: pre;" direction="ltr" dominant-baseline="text-before-edge">signin or create</text><text x="86.23993682861328" y="25" font-family="Virgil, Segoe UI Emoji" font-size="20px" fill="#1e1e1e" text-anchor="middle" style="white-space: pre;" direction="ltr" dominant-baseline="text-before-edge">a Github Account</text></g><g stroke-linecap="round" transform="translate(387.99313856489107 375.241533866805) rotate(0 78.18670134568731 27.636163201792755)"><path d="M13.82 0 C66.02 -2.62, 112.55 -1.89, 142.56 0 C147.8 -1.73, 152.97 1.05, 156.37 13.82 C160.17 25.05, 161.64 30.55, 156.37 41.45 C156.64 49.2, 149.63 50.91, 142.56 55.27 C110.77 55.47, 72.6 57.57, 13.82 55.27 C3.95 54.01, 0.9 46.84, 0 41.45 C-2.51 35.28, -3.44 25.37, 0 13.82 C3.82 -0.72, 5.67 2.22, 13.82 0" stroke="none" stroke-width="0" fill="#a5d8ff"></path><path d="M13.82 0 C58.56 0.12, 102.98 1.47, 142.56 0 M13.82 0 C64.14 3.31, 112.27 -0.08, 142.56 0 M142.56 0 C152.1 3.31, 153.18 6.52, 156.37 13.82 M142.56 0 C148.86 -4.16, 160.72 1.92, 156.37 13.82 M156.37 13.82 C155.92 19.98, 157.42 30.35, 156.37 41.45 M156.37 13.82 C156.55 23.35, 155.3 35.16, 156.37 41.45 M156.37 41.45 C156.88 48.57, 148.76 52.31, 142.56 55.27 M156.37 41.45 C158.64 52.36, 150.24 52.29, 142.56 55.27 M142.56 55.27 C106.97 57.62, 65.26 57.73, 13.82 55.27 M142.56 55.27 C94.55 53.68, 51.5 52.7, 13.82 55.27 M13.82 55.27 C1.02 51.84, -3.27 54.42, 0 41.45 M13.82 55.27 C4.13 52.48, 1.89 48.25, 0 41.45 M0 41.45 C3.37 35.48, -0.91 26.01, 0 13.82 M0 41.45 C-1.48 37.11, -1.21 31.14, 0 13.82 M0 13.82 C-3 6.32, 8.32 2.26, 13.82 0 M0 13.82 C-3.84 0.98, 1.76 -3.03, 13.82 0" stroke="#1e1e1e" stroke-width="2" fill="none"></path></g><g transform="translate(400.28316794499574 375.79704709351216) rotate(0 65.4799575805664 25)"><text x="65.4799575805664" y="0" font-family="Virgil, Segoe UI Emoji" font-size="20px" fill="#1e1e1e" text-anchor="middle" style="white-space: pre;" direction="ltr" dominant-baseline="text-before-edge">create a new</text><text x="65.4799575805664" y="25" font-family="Virgil, Segoe UI Emoji" font-size="20px" fill="#1e1e1e" text-anchor="middle" style="white-space: pre;" direction="ltr" dominant-baseline="text-before-edge">project</text></g><g stroke-linecap="round" transform="translate(613.1855399287854 375.0016244251032) rotate(0 92.90747339815289 32.21904666647828)"><path d="M16.11 0 C74.25 0.15, 132.68 -9.6, 169.71 0 C179.43 5.09, 191.18 0.15, 185.81 16.11 C184.12 17.77, 180.36 31.82, 185.81 48.33 C183.56 55.5, 177.29 62.16, 169.71 64.44 C126.67 70.51, 73.71 71.26, 16.11 64.44 C4.64 61.81, 2.91 56.93, 0 48.33 C-3.48 42.88, 2.47 33.47, 0 16.11 C-5.18 10.87, 7.53 5.01, 16.11 0" stroke="none" stroke-width="0" fill="#a5d8ff"></path><path d="M16.11 0 C55.44 -0.22, 86.75 -1.33, 169.71 0 M16.11 0 C60.04 1.57, 105.31 3.05, 169.71 0 M169.71 0 C177.3 -3.61, 182.17 7.63, 185.81 16.11 M169.71 0 C180.91 -3.51, 189.42 6.13, 185.81 16.11 M185.81 16.11 C187.4 24.34, 182.46 38.14, 185.81 48.33 M185.81 16.11 C184.63 29.52, 185.57 39.7, 185.81 48.33 M185.81 48.33 C183.69 62.39, 181.49 65.53, 169.71 64.44 M185.81 48.33 C181.36 60.63, 177.44 63.55, 169.71 64.44 M169.71 64.44 C125.09 62.46, 78.77 61.73, 16.11 64.44 M169.71 64.44 C109.52 64.29, 50.33 63.16, 16.11 64.44 M16.11 64.44 C7.95 68.23, -2.58 58.29, 0 48.33 M16.11 64.44 C9.29 62.86, 2.99 61.84, 0 48.33 M0 48.33 C1.93 44.98, -1.33 34.52, 0 16.11 M0 48.33 C0.16 37.83, 0.9 25.87, 0 16.11 M0 16.11 C-1.18 7.5, 4.83 -2.58, 16.11 0 M0 16.11 C2.57 0.88, 1.49 -2.07, 16.11 0" stroke="#1e1e1e" stroke-width="2" fill="none"></path></g><g transform="translate(625.2019456258718 382.50091524634126) rotate(0 81.0299301147461 25)"><text x="81.0299301147461" y="0" font-family="Virgil, Segoe UI Emoji" font-size="20px" fill="#1e1e1e" text-anchor="middle" style="white-space: pre;" direction="ltr" dominant-baseline="text-before-edge">open new project</text><text x="81.0299301147461" y="25" font-family="Virgil, Segoe UI Emoji" font-size="20px" fill="#1e1e1e" text-anchor="middle" style="white-space: pre;" direction="ltr" dominant-baseline="text-before-edge">in CodeSpaces</text></g><g stroke-linecap="round" transform="translate(637.1731035198313 484.76347105460513) rotate(0 70.27082328341032 30.413665763339992)"><path d="M15.21 0 C51.23 5.58, 98.37 2.61, 125.33 0 C139.92 -1.11, 145.52 7.65, 140.54 15.21 C142.11 19.33, 140.24 26.93, 140.54 45.62 C135.9 52.01, 140.73 55.77, 125.33 60.83 C91.25 55.52, 58.35 61.58, 15.21 60.83 C6.58 63.66, 1.17 55.6, 0 45.62 C3.19 40.88, 3.61 30, 0 15.21 C-4.94 8.86, 6.72 -2.86, 15.21 0" stroke="none" stroke-width="0" fill="#a5d8ff"></path><path d="M15.21 0 C56.07 3.03, 94.1 -3.27, 125.33 0 M15.21 0 C51.81 1.45, 91.29 3.23, 125.33 0 M125.33 0 C131.71 -2.64, 140.12 5.88, 140.54 15.21 M125.33 0 C138.6 3.67, 138.8 2.95, 140.54 15.21 M140.54 15.21 C137.17 21.19, 137.23 32.21, 140.54 45.62 M140.54 15.21 C138.59 20.59, 142.07 29.68, 140.54 45.62 M140.54 45.62 C136.74 52.74, 135.36 58.44, 125.33 60.83 M140.54 45.62 C141.26 58.44, 133.91 56.74, 125.33 60.83 M125.33 60.83 C92.58 58.78, 56.27 57.61, 15.21 60.83 M125.33 60.83 C84.84 63.62, 47.23 60.87, 15.21 60.83 M15.21 60.83 C9 60.04, 3.6 54.03, 0 45.62 M15.21 60.83 C6.46 63.86, 0 59.94, 0 45.62 M0 45.62 C-2.67 34.01, 0.15 27.46, 0 15.21 M0 45.62 C0.68 32.94, -0.59 23.05, 0 15.21 M0 15.21 C1.5 1.6, 1.23 2.47, 15.21 0 M0 15.21 C-3.28 1.73, 7.8 -4.44, 15.21 0" stroke="#1e1e1e" stroke-width="2" fill="none"></path></g><g transform="translate(645.5137500086207 489.485259314296) rotate(0 64.4299545288086 25)"><text x="64.4299545288086" y="0" font-family="Virgil, Segoe UI Emoji" font-size="20px" fill="#1e1e1e" text-anchor="middle" style="white-space: pre;" direction="ltr" dominant-baseline="text-before-edge">add new file </text><text x="64.4299545288086" y="25" font-family="Virgil, Segoe UI Emoji" font-size="20px" fill="#1e1e1e" text-anchor="middle" style="white-space: pre;" direction="ltr" dominant-baseline="text-before-edge">Dockerfile</text></g><g stroke-linecap="round" transform="translate(216.79775537802402 1186.8660229401955) rotate(0 131.01608964127695 22.535668821453783)"><path d="M11.27 0 C73.69 -6.74, 146.75 -8.51, 250.76 0 C257.98 2.5, 257.52 6.62, 262.03 11.27 C257.89 20.46, 256.21 31.82, 262.03 33.8 C267.56 39.24, 260.32 50.39, 250.76 45.07 C190.08 47.1, 134.32 48.14, 11.27 45.07 C3.9 41.26, 0.94 40.14, 0 33.8 C-4.84 29.19, 3.44 20.1, 0 11.27 C0.53 2.91, 2.16 -4.13, 11.27 0" stroke="none" stroke-width="0" fill="#a5d8ff"></path><path d="M11.27 0 C66.94 3.31, 115.82 0.48, 250.76 0 M11.27 0 C70.61 2.41, 126.08 1.83, 250.76 0 M250.76 0 C260.49 -3.83, 265.94 5.8, 262.03 11.27 M250.76 0 C260.86 -3.92, 257.93 1.6, 262.03 11.27 M262.03 11.27 C265.58 22.66, 260.83 29.09, 262.03 33.8 M262.03 11.27 C260.63 15.85, 263.56 20.77, 262.03 33.8 M262.03 33.8 C258.23 38.12, 257.32 49.05, 250.76 45.07 M262.03 33.8 C265.91 45.03, 260.77 43.97, 250.76 45.07 M250.76 45.07 C156.34 47.42, 67.62 42.58, 11.27 45.07 M250.76 45.07 C165.37 41.91, 80.7 41.63, 11.27 45.07 M11.27 45.07 C5.45 45.49, -3.67 40.89, 0 33.8 M11.27 45.07 C0 40.59, 0.02 41.64, 0 33.8 M0 33.8 C-1.75 30.48, -0.73 21.58, 0 11.27 M0 33.8 C1.83 29.52, -0.53 25.37, 0 11.27 M0 11.27 C-3.86 2.18, 1.3 -3.63, 11.27 0 M0 11.27 C-1.7 6.93, 2.3 1.44, 11.27 0" stroke="#1e1e1e" stroke-width="2" fill="none"></path></g><g transform="translate(224.6249206765151 1199.9233054215183) rotate(0 119.35989379882812 12.5)"><text x="119.35989379882812" y="0" font-family="Virgil, Segoe UI Emoji" font-size="20px" fill="#1e1e1e" text-anchor="middle" style="white-space: pre;" direction="ltr" dominant-baseline="text-before-edge">select Docker in sidebar</text></g><g stroke-linecap="round" transform="translate(242.4264897723965 1292.032410015438) rotate(0 109.36424293781329 45.292255245913)"><path d="M22.65 0 C61.46 -4.49, 91.2 -0.41, 196.08 0 C214.75 1.08, 217 4.01, 218.73 22.65 C214.41 28.74, 215.37 41.74, 218.73 67.94 C215.05 83.27, 216.54 90.28, 196.08 90.58 C131.74 91.06, 70.76 87.58, 22.65 90.58 C5.91 94.05, -2.54 85.78, 0 67.94 C-1.7 49.31, -3.94 44.43, 0 22.65 C-2.51 4.9, 5.15 4.41, 22.65 0" stroke="none" stroke-width="0" fill="#a5d8ff"></path><path d="M22.65 0 C86.52 -4.9, 148.86 -4.77, 196.08 0 M22.65 0 C77.78 1.6, 137.36 1.91, 196.08 0 M196.08 0 C210.57 2.54, 216.67 6.48, 218.73 22.65 M196.08 0 C211.9 1.62, 219.04 3.78, 218.73 22.65 M218.73 22.65 C217.87 38.62, 220.24 56.17, 218.73 67.94 M218.73 22.65 C218.55 39.58, 216.75 53.43, 218.73 67.94 M218.73 67.94 C218.25 83.03, 208.4 93.36, 196.08 90.58 M218.73 67.94 C217.14 81.68, 212.58 87.5, 196.08 90.58 M196.08 90.58 C140.19 85.48, 88.48 88.15, 22.65 90.58 M196.08 90.58 C137.71 92.29, 81.67 94.01, 22.65 90.58 M22.65 90.58 C4.36 93.76, -0.28 86.31, 0 67.94 M22.65 90.58 C11.34 88.44, -3.07 85.01, 0 67.94 M0 67.94 C3.09 55.42, -1.06 40.39, 0 22.65 M0 67.94 C-1.9 58.72, -2.54 48.33, 0 22.65 M0 22.65 C0.46 6.34, 4.83 3.08, 22.65 0 M0 22.65 C1.16 3.01, 9.07 -1.36, 22.65 0" stroke="#1e1e1e" stroke-width="2" fill="none"></path></g><g transform="translate(262.3629802038322 1295.2053214670902) rotate(0 91.179931640625 50)"><text x="91.179931640625" y="0" font-family="Virgil, Segoe UI Emoji" font-size="20px" fill="#1e1e1e" text-anchor="middle" style="white-space: pre;" direction="ltr" dominant-baseline="text-before-edge">expand images and</text><text x="91.179931640625" y="25" font-family="Virgil, Segoe UI Emoji" font-size="20px" fill="#1e1e1e" text-anchor="middle" style="white-space: pre;" direction="ltr" dominant-baseline="text-before-edge">right-click latest</text><text x="91.179931640625" y="50" font-family="Virgil, Segoe UI Emoji" font-size="20px" fill="#1e1e1e" text-anchor="middle" style="white-space: pre;" direction="ltr" dominant-baseline="text-before-edge">to select run</text><text x="91.179931640625" y="75" font-family="Virgil, Segoe UI Emoji" font-size="20px" fill="#1e1e1e" text-anchor="middle" style="white-space: pre;" direction="ltr" dominant-baseline="text-before-edge"></text></g><g stroke-linecap="round" transform="translate(755.722840608249 1033.3720621064108) rotate(0 109.58516054081872 46.39694439825223)"><path d="M23.2 0 C88.57 -3.68, 145.92 -8.58, 195.97 0 C206.84 3.91, 218.49 8.87, 219.17 23.2 C218.48 37.26, 221.32 59.41, 219.17 69.6 C215.7 89.28, 206.65 96.43, 195.97 92.79 C145.97 94.12, 102.43 91.41, 23.2 92.79 C7.37 92.37, 2.2 82.32, 0 69.6 C0.24 56.97, 5.08 36.66, 0 23.2 C-4.3 10.72, 8.54 -1.32, 23.2 0" stroke="none" stroke-width="0" fill="#a5d8ff"></path><path d="M23.2 0 C62.09 0.65, 103.74 -1.6, 195.97 0 M23.2 0 C69.55 -1.68, 111.94 -2.74, 195.97 0 M195.97 0 C209.61 0.93, 217.01 4.44, 219.17 23.2 M195.97 0 C214.93 0.1, 222.46 8.82, 219.17 23.2 M219.17 23.2 C219.44 31.54, 221.65 44.3, 219.17 69.6 M219.17 23.2 C216.72 36.88, 217.62 48.4, 219.17 69.6 M219.17 69.6 C216.52 87.83, 215.06 90.37, 195.97 92.79 M219.17 69.6 C223.47 87.08, 209.05 97.35, 195.97 92.79 M195.97 92.79 C139.1 96.3, 79.52 91.27, 23.2 92.79 M195.97 92.79 C138.51 94.71, 86.27 96.16, 23.2 92.79 M23.2 92.79 C8.87 92.1, -1.68 85.17, 0 69.6 M23.2 92.79 C3.36 89.13, -4 85.62, 0 69.6 M0 69.6 C-0.77 55.6, 1.38 46.94, 0 23.2 M0 69.6 C-0.27 59.39, 0.31 48.35, 0 23.2 M0 23.2 C-2.98 6.94, 7.84 -3.26, 23.2 0 M0 23.2 C-0.68 9.26, 8.42 2.39, 23.2 0" stroke="#1e1e1e" stroke-width="2" fill="none"></path></g><g transform="translate(767.1875736973734 1040.406299703518) rotate(0 100.4198989868164 37.5)"><text x="100.4198989868164" y="0" font-family="Virgil, Segoe UI Emoji" font-size="20px" fill="#1e1e1e" text-anchor="middle" style="white-space: pre;" direction="ltr" dominant-baseline="text-before-edge">Open a terminal</text><text x="100.4198989868164" y="25" font-family="Virgil, Segoe UI Emoji" font-size="20px" fill="#1e1e1e" text-anchor="middle" style="white-space: pre;" direction="ltr" dominant-baseline="text-before-edge">and build with</text><text x="100.4198989868164" y="50" font-family="Virgil, Segoe UI Emoji" font-size="20px" fill="#1e1e1e" text-anchor="middle" style="white-space: pre;" direction="ltr" dominant-baseline="text-before-edge">docker compose build</text></g><g stroke-linecap="round" transform="translate(243.31022760929295 1037.5120023465045) rotate(0 109.58516054081872 33.140674570180124)"><path d="M16.57 0 C77.71 2.16, 143.38 4.38, 202.6 0 C216.18 -0.71, 218.39 6.45, 219.17 16.57 C217.24 21.92, 213.36 37.58, 219.17 49.71 C216.29 60.41, 209.5 69.06, 202.6 66.28 C144.14 62.04, 91.18 61.63, 16.57 66.28 C3.5 67.41, 1.83 57.37, 0 49.71 C1.67 34.03, -1.48 22.31, 0 16.57 C-5.26 10.06, 9.37 3.14, 16.57 0" stroke="none" stroke-width="0" fill="#a5d8ff"></path><path d="M16.57 0 C81.87 1.46, 154.57 -2.9, 202.6 0 M16.57 0 C82.83 -3.13, 148.37 -5.49, 202.6 0 M202.6 0 C213.19 2.58, 215.17 5.43, 219.17 16.57 M202.6 0 C214.31 -1.67, 220.51 1.83, 219.17 16.57 M219.17 16.57 C222.4 25.21, 215.9 39.15, 219.17 49.71 M219.17 16.57 C219.9 23.24, 220.66 31.09, 219.17 49.71 M219.17 49.71 C217.58 62.64, 214.42 62.98, 202.6 66.28 M219.17 49.71 C220.51 61.61, 217.24 64.64, 202.6 66.28 M202.6 66.28 C155.11 63.65, 103.01 63.7, 16.57 66.28 M202.6 66.28 C156.44 65.14, 110.83 65.5, 16.57 66.28 M16.57 66.28 C6.65 64.5, 2.9 62.3, 0 49.71 M16.57 66.28 C1.68 63.13, -0.02 65.19, 0 49.71 M0 49.71 C-0.89 36.96, -2.56 25.37, 0 16.57 M0 49.71 C-1.21 41.73, -1.64 32.16, 0 16.57 M0 16.57 C2.93 7.8, 2.32 0.39, 16.57 0 M0 16.57 C-1.39 2.29, 8.85 0.81, 16.57 0" stroke="#1e1e1e" stroke-width="2" fill="none"></path></g><g transform="translate(252.25363852024748 1044.661734064191) rotate(0 99.07989501953125 25)"><text x="99.07989501953125" y="0" font-family="Virgil, Segoe UI Emoji" font-size="20px" fill="#1e1e1e" text-anchor="middle" style="white-space: pre;" direction="ltr" dominant-baseline="text-before-edge">right-click Dockerfile</text><text x="99.07989501953125" y="25" font-family="Virgil, Segoe UI Emoji" font-size="20px" fill="#1e1e1e" text-anchor="middle" style="white-space: pre;" direction="ltr" dominant-baseline="text-before-edge">and Build Image</text></g><g stroke-linecap="round" transform="translate(372.3380082548654 731.2922232579399) rotate(0 77.54919197919651 64.95570867257811)"><path d="M32 0 C57.08 -2.63, 91.89 -1.45, 123.1 0 C143.85 -4.73, 156.32 10.67, 155.1 32 C160.71 49.15, 153.83 70.67, 155.1 97.91 C151.74 116.96, 143.75 133.4, 123.1 129.91 C99.95 122.94, 66.71 124.07, 32 129.91 C16.14 132.99, -0.69 118.38, 0 97.91 C-5.49 80.78, -6.46 53.57, 0 32 C0.17 13.39, 8.92 -0.98, 32 0" stroke="none" stroke-width="0" fill="#b2f2bb"></path><path d="M32 0 C52.23 0.5, 65.58 -4.36, 123.1 0 M32 0 C65.48 -3.14, 96.24 -3.1, 123.1 0 M123.1 0 C142.21 1.82, 152.77 12.48, 155.1 32 M123.1 0 C145.07 -0.1, 153.45 6.65, 155.1 32 M155.1 32 C152.87 50.99, 158.05 74.69, 155.1 97.91 M155.1 32 C154.37 46.2, 153.82 62.54, 155.1 97.91 M155.1 97.91 C154.72 116.32, 140.46 131.51, 123.1 129.91 M155.1 97.91 C155.77 115.02, 141.2 131.98, 123.1 129.91 M123.1 129.91 C93.51 125.43, 56.48 129.21, 32 129.91 M123.1 129.91 C104.86 129.7, 85.17 132.73, 32 129.91 M32 129.91 C11.85 132.55, -1.81 123.17, 0 97.91 M32 129.91 C12.88 133.84, -1.78 116.28, 0 97.91 M0 97.91 C-3.18 73.93, -3.34 49.62, 0 32 M0 97.91 C0.12 75.6, 0.18 57.29, 0 32 M0 32 C-2.28 7.77, 8.39 -2.46, 32 0 M0 32 C2.98 10.58, 9.41 -0.03, 32 0" stroke="#2f9e44" stroke-width="2" fill="none"></path></g><g transform="translate(391.39079361904146 747.6057924235536) rotate(0 64.1099624633789 50)"><text x="64.1099624633789" y="0" font-family="Virgil, Segoe UI Emoji" font-size="20px" fill="#2f9e44" text-anchor="middle" style="white-space: pre;" direction="ltr" dominant-baseline="text-before-edge">add a basic </text><text x="64.1099624633789" y="25" font-family="Virgil, Segoe UI Emoji" font-size="20px" fill="#2f9e44" text-anchor="middle" style="white-space: pre;" direction="ltr" dominant-baseline="text-before-edge">develpment</text><text x="64.1099624633789" y="50" font-family="Virgil, Segoe UI Emoji" font-size="20px" fill="#2f9e44" text-anchor="middle" style="white-space: pre;" direction="ltr" dominant-baseline="text-before-edge">service </text><text x="64.1099624633789" y="75" font-family="Virgil, Segoe UI Emoji" font-size="20px" fill="#2f9e44" text-anchor="middle" style="white-space: pre;" direction="ltr" dominant-baseline="text-before-edge">definition</text></g><g stroke-linecap="round" transform="translate(632.6028130009383 623.0326863286848) rotate(0 78.87479873454129 29.82655654450579)"><path d="M14.91 0 C56.77 1.47, 97.14 -5, 142.84 0 C148.08 2.71, 153.91 0.29, 157.75 14.91 C157.42 25.09, 159.32 24.83, 157.75 44.74 C159.17 55.89, 156.84 59.83, 142.84 59.65 C98.73 55.45, 48.7 64.1, 14.91 59.65 C9 61.24, -3.83 51.54, 0 44.74 C-2.66 34.8, 2.75 32.57, 0 14.91 C2.61 2.23, 3.35 3.85, 14.91 0" stroke="none" stroke-width="0" fill="#b2f2bb"></path><path d="M14.91 0 C63.22 -1.12, 114.17 2.07, 142.84 0 M14.91 0 C44.7 -3.04, 71.77 -2.98, 142.84 0 M142.84 0 C151.57 -3.37, 156.21 3.92, 157.75 14.91 M142.84 0 C156.91 2.94, 161.15 5.79, 157.75 14.91 M157.75 14.91 C160.83 24.82, 156.97 30.25, 157.75 44.74 M157.75 14.91 C158.77 20.77, 159.61 26, 157.75 44.74 M157.75 44.74 C160.83 58.36, 152.35 60.44, 142.84 59.65 M157.75 44.74 C154.61 53.58, 153.87 60.51, 142.84 59.65 M142.84 59.65 C92.64 60.14, 37.63 58.64, 14.91 59.65 M142.84 59.65 C110.22 63.33, 80.89 60.74, 14.91 59.65 M14.91 59.65 C8.91 62.46, -1.44 56.05, 0 44.74 M14.91 59.65 C1.07 59.78, 2.92 50.94, 0 44.74 M0 44.74 C3.51 36.87, 1.21 33.24, 0 14.91 M0 44.74 C1.19 35.2, -1.65 22.17, 0 14.91 M0 14.91 C-0.17 2.78, 5.83 2.03, 14.91 0 M0 14.91 C-2.37 8.17, 3.61 -0.52, 14.91 0" stroke="#2f9e44" stroke-width="2" fill="none"></path></g><g transform="translate(650.9269429383314 629.6249327997574) rotate(0 60.41993713378906 25)"><text x="60.41993713378906" y="0" font-family="Virgil, Segoe UI Emoji" font-size="20px" fill="#2f9e44" text-anchor="middle" style="white-space: pre;" direction="ltr" dominant-baseline="text-before-edge">fill in basic</text><text x="60.41993713378906" y="25" font-family="Virgil, Segoe UI Emoji" font-size="20px" fill="#2f9e44" text-anchor="middle" style="white-space: pre;" direction="ltr" dominant-baseline="text-before-edge">requirements</text></g><g stroke-linecap="round" transform="translate(363.058592405265 620.3813716806828) rotate(0 100.08484394443155 32.47785433628903)"><path d="M16.24 0 C62.83 1.56, 105.52 -4.95, 183.93 0 C199.47 -3.68, 195.15 8.44, 200.17 16.24 C203.4 30.78, 205.77 33.2, 200.17 48.72 C197.69 61.24, 199.33 65.91, 183.93 64.96 C132.85 64.57, 80.45 62.13, 16.24 64.96 C9.99 68.1, -4.11 63.33, 0 48.72 C-5.57 47.17, 1.96 35.88, 0 16.24 C1.9 6.37, 6.07 -0.56, 16.24 0" stroke="none" stroke-width="0" fill="#a5d8ff"></path><path d="M16.24 0 C61.15 3.6, 105.12 1.8, 183.93 0 M16.24 0 C71.08 -1.72, 125.33 0.53, 183.93 0 M183.93 0 C195.65 3.19, 199.05 5.84, 200.17 16.24 M183.93 0 C194.76 3.34, 203.62 0.95, 200.17 16.24 M200.17 16.24 C197.53 21.45, 201.97 33.95, 200.17 48.72 M200.17 16.24 C201.21 28.3, 200.31 39.83, 200.17 48.72 M200.17 48.72 C197.12 58.56, 197.74 64.3, 183.93 64.96 M200.17 48.72 C201.9 61.91, 195.37 68.77, 183.93 64.96 M183.93 64.96 C144.42 61.38, 100.96 64.46, 16.24 64.96 M183.93 64.96 C140.6 66.99, 92.92 67.2, 16.24 64.96 M16.24 64.96 C7.59 68.36, 1.07 55.63, 0 48.72 M16.24 64.96 C5.11 69.19, 2.12 55.67, 0 48.72 M0 48.72 C1.12 34.61, -3.68 22.83, 0 16.24 M0 48.72 C1.94 40.22, 1.61 35.28, 0 16.24 M0 16.24 C3.39 4.03, 5.2 1.54, 16.24 0 M0 16.24 C3.77 9.05, 9.53 4.43, 16.24 0" stroke="#1e1e1e" stroke-width="2" fill="none"></path></g><g transform="translate(381.6071800232776 626.5318503706198) rotate(0 80.07991790771484 25)"><text x="80.07991790771484" y="0" font-family="Virgil, Segoe UI Emoji" font-size="20px" fill="#1e1e1e" text-anchor="middle" style="white-space: pre;" direction="ltr" dominant-baseline="text-before-edge">add new file</text><text x="80.07991790771484" y="25" font-family="Virgil, Segoe UI Emoji" font-size="20px" fill="#1e1e1e" text-anchor="middle" style="white-space: pre;" direction="ltr" dominant-baseline="text-before-edge">requirements.txt</text></g><g stroke-linecap="round" transform="translate(615.2064680830231 770.8978116307841) rotate(0 100.08484394443155 32.47785433628903)"><path d="M16.24 0 C63.93 -0.95, 105.9 -3.17, 183.93 0 C199.86 5.53, 204.78 3.62, 200.17 16.24 C204.5 27.66, 205.43 33.31, 200.17 48.72 C201.65 63.08, 190.24 63.74, 183.93 64.96 C123.85 72.36, 78.65 74.29, 16.24 64.96 C3.93 62.29, -1.41 60.1, 0 48.72 C-5.08 43.42, 1.25 29.78, 0 16.24 C2.52 2, 5.88 0.61, 16.24 0" stroke="none" stroke-width="0" fill="#a5d8ff"></path><path d="M16.24 0 C73.46 4.89, 125.91 -0.32, 183.93 0 M16.24 0 C63.56 -1.49, 105.4 -2.96, 183.93 0 M183.93 0 C192.52 3.9, 197.22 8.92, 200.17 16.24 M183.93 0 C190.91 -1.78, 198.87 1.85, 200.17 16.24 M200.17 16.24 C197.98 31.06, 203.53 38.53, 200.17 48.72 M200.17 16.24 C200.92 26, 202.06 36.56, 200.17 48.72 M200.17 48.72 C200.69 55.55, 195.72 61.21, 183.93 64.96 M200.17 48.72 C198.37 63.82, 196.34 63.03, 183.93 64.96 M183.93 64.96 C119.95 61.23, 60.07 60.74, 16.24 64.96 M183.93 64.96 C138.34 62.71, 94.5 62.21, 16.24 64.96 M16.24 64.96 C6.68 61.76, -3.36 58.25, 0 48.72 M16.24 64.96 C2.31 68.92, 0.25 62.25, 0 48.72 M0 48.72 C-1.83 38.25, -3.12 29.63, 0 16.24 M0 48.72 C0.99 37.78, 1.24 31.57, 0 16.24 M0 16.24 C2.66 3.73, 1.84 -0.37, 16.24 0 M0 16.24 C1.62 4.29, 2.52 3.33, 16.24 0" stroke="#1e1e1e" stroke-width="2" fill="none"></path></g><g transform="translate(624.1850712650005 777.048290320721) rotate(0 89.64990234375 25)"><text x="89.64990234375" y="0" font-family="Virgil, Segoe UI Emoji" font-size="20px" fill="#1e1e1e" text-anchor="middle" style="white-space: pre;" direction="ltr" dominant-baseline="text-before-edge">add new file</text><text x="89.64990234375" y="25" font-family="Virgil, Segoe UI Emoji" font-size="20px" fill="#1e1e1e" text-anchor="middle" style="white-space: pre;" direction="ltr" dominant-baseline="text-before-edge">docker-compose.yml</text></g><g stroke-linecap="round" transform="translate(408.6729546622173 467.6564791323719) rotate(0 58.18867018814956 46.800913923938424)"><path d="M23.4 0 C45.97 -4.85, 61.93 0.74, 92.98 0 C110.26 -4.96, 114.35 4.29, 116.38 23.4 C120.1 35.12, 112.53 46.01, 116.38 70.2 C115.8 90.52, 103.19 89.71, 92.98 93.6 C75.21 90.75, 52.98 90.05, 23.4 93.6 C3.22 92.47, -5.03 83.5, 0 70.2 C-0.93 55.3, -2.72 38.86, 0 23.4 C0.59 11.44, 11.59 4.42, 23.4 0" stroke="none" stroke-width="0" fill="#b2f2bb"></path><path d="M23.4 0 C44.32 3.07, 61.64 2.66, 92.98 0 M23.4 0 C45.85 1.42, 67.99 1.59, 92.98 0 M92.98 0 C111.98 -0.65, 119.31 7.71, 116.38 23.4 M92.98 0 C112.22 1.69, 117.25 6.4, 116.38 23.4 M116.38 23.4 C113.28 35.71, 120.52 51.25, 116.38 70.2 M116.38 23.4 C117.14 42.08, 115.15 58.41, 116.38 70.2 M116.38 70.2 C116.34 84.57, 111.17 97.59, 92.98 93.6 M116.38 70.2 C120.17 89.92, 111.45 95.38, 92.98 93.6 M92.98 93.6 C68.85 91.95, 50.04 93.54, 23.4 93.6 M92.98 93.6 C71.07 94.11, 43.88 91.61, 23.4 93.6 M23.4 93.6 C10.5 91.82, 1.94 82.73, 0 70.2 M23.4 93.6 C3.62 95.08, -2.5 89.21, 0 70.2 M0 70.2 C-3.24 61.67, 1.16 48.97, 0 23.4 M0 70.2 C0.73 54.84, 0.77 36.85, 0 23.4 M0 23.4 C1.13 4.35, 11.03 -2.63, 23.4 0 M0 23.4 C-3.13 6.86, 10.27 4.23, 23.4 0" stroke="#2f9e44" stroke-width="2" fill="none"></path></g><g transform="translate(418.85259274904297 477.6574953395972) rotate(0 48.14994812011719 37.5)"><text x="48.14994812011719" y="0" font-family="Virgil, Segoe UI Emoji" font-size="20px" fill="#2f9e44" text-anchor="middle" style="white-space: pre;" direction="ltr" dominant-baseline="text-before-edge">add </text><text x="48.14994812011719" y="25" font-family="Virgil, Segoe UI Emoji" font-size="20px" fill="#2f9e44" text-anchor="middle" style="white-space: pre;" direction="ltr" dominant-baseline="text-before-edge">Dockerfile</text><text x="48.14994812011719" y="50" font-family="Virgil, Segoe UI Emoji" font-size="20px" fill="#2f9e44" text-anchor="middle" style="white-space: pre;" direction="ltr" dominant-baseline="text-before-edge">content</text></g><g transform="translate(801.69446237898 493.9146010353664) rotate(0 147.0546875 18.400000000000006)"><text x="0" y="0" font-family="Helvetica, Segoe UI Emoji" font-size="16px" fill="#1e1e1e" text-anchor="start" style="white-space: pre;" direction="ltr" dominant-baseline="text-before-edge">Install Docker extension if offered/needed</text><text x="0" y="18.4" font-family="Helvetica, Segoe UI Emoji" font-size="16px" fill="#1e1e1e" text-anchor="start" style="white-space: pre;" direction="ltr" dominant-baseline="text-before-edge">(and other such as Python, etc)</text></g><g stroke-linecap="round" transform="translate(87.32824066375383 719.3615601852125) rotate(0 106.93389646147295 81.52606281388694)"><path d="M32 0 C65.44 0, 98.88 0, 181.87 0 M32 0 C72.71 0, 113.43 0, 181.87 0 M181.87 0 C203.2 0, 213.87 10.67, 213.87 32 M181.87 0 C203.2 0, 213.87 10.67, 213.87 32 M213.87 32 C213.87 62.61, 213.87 93.21, 213.87 131.05 M213.87 32 C213.87 66.63, 213.87 101.26, 213.87 131.05 M213.87 131.05 C213.87 152.39, 203.2 163.05, 181.87 163.05 M213.87 131.05 C213.87 152.39, 203.2 163.05, 181.87 163.05 M181.87 163.05 C130.5 163.05, 79.13 163.05, 32 163.05 M181.87 163.05 C129.97 163.05, 78.07 163.05, 32 163.05 M32 163.05 C10.67 163.05, 0 152.39, 0 131.05 M32 163.05 C10.67 163.05, 0 152.39, 0 131.05 M0 131.05 C0 108.83, 0 86.62, 0 32 M0 131.05 C0 92.27, 0 53.49, 0 32 M0 32 C0 10.67, 10.67 0, 32 0 M0 32 C0 10.67, 10.67 0, 32 0" stroke="#1e1e1e" stroke-width="1" fill="none"></path></g><g transform="translate(107.8915250979012 734.5925484085287) rotate(0 88.91015625 65.82033718435235)"><text x="0" y="0" font-family="Cascadia, Segoe UI Emoji" font-size="8.438504767224662px" fill="#1e1e1e" text-anchor="start" style="white-space: pre;" direction="ltr" dominant-baseline="text-before-edge">version: '3.8'</text><text x="0" y="10.126205720669594" font-family="Cascadia, Segoe UI Emoji" font-size="8.438504767224662px" fill="#1e1e1e" text-anchor="start" style="white-space: pre;" direction="ltr" dominant-baseline="text-before-edge">services:</text><text x="0" y="20.252411441339188" font-family="Cascadia, Segoe UI Emoji" font-size="8.438504767224662px" fill="#1e1e1e" text-anchor="start" style="white-space: pre;" direction="ltr" dominant-baseline="text-before-edge"></text><text x="0" y="30.37861716200878" font-family="Cascadia, Segoe UI Emoji" font-size="8.438504767224662px" fill="#1e1e1e" text-anchor="start" style="white-space: pre;" direction="ltr" dominant-baseline="text-before-edge">  # Building and testing environment</text><text x="0" y="40.504822882678376" font-family="Cascadia, Segoe UI Emoji" font-size="8.438504767224662px" fill="#1e1e1e" text-anchor="start" style="white-space: pre;" direction="ltr" dominant-baseline="text-before-edge">  dev:</text><text x="0" y="50.63102860334797" font-family="Cascadia, Segoe UI Emoji" font-size="8.438504767224662px" fill="#1e1e1e" text-anchor="start" style="white-space: pre;" direction="ltr" dominant-baseline="text-before-edge">    build:</text><text x="0" y="60.75723432401756" font-family="Cascadia, Segoe UI Emoji" font-size="8.438504767224662px" fill="#1e1e1e" text-anchor="start" style="white-space: pre;" direction="ltr" dominant-baseline="text-before-edge">      context: .</text><text x="0" y="70.88344004468716" font-family="Cascadia, Segoe UI Emoji" font-size="8.438504767224662px" fill="#1e1e1e" text-anchor="start" style="white-space: pre;" direction="ltr" dominant-baseline="text-before-edge">      dockerfile: Dockerfile</text><text x="0" y="81.00964576535675" font-family="Cascadia, Segoe UI Emoji" font-size="8.438504767224662px" fill="#1e1e1e" text-anchor="start" style="white-space: pre;" direction="ltr" dominant-baseline="text-before-edge">    volumes:</text><text x="0" y="91.13585148602634" font-family="Cascadia, Segoe UI Emoji" font-size="8.438504767224662px" fill="#1e1e1e" text-anchor="start" style="white-space: pre;" direction="ltr" dominant-baseline="text-before-edge">      - .:/app</text><text x="0" y="101.26205720669594" font-family="Cascadia, Segoe UI Emoji" font-size="8.438504767224662px" fill="#1e1e1e" text-anchor="start" style="white-space: pre;" direction="ltr" dominant-baseline="text-before-edge">    stdin_open: true</text><text x="0" y="111.38826292736553" font-family="Cascadia, Segoe UI Emoji" font-size="8.438504767224662px" fill="#1e1e1e" text-anchor="start" style="white-space: pre;" direction="ltr" dominant-baseline="text-before-edge">    tty: true</text><text x="0" y="121.51446864803512" font-family="Cascadia, Segoe UI Emoji" font-size="8.438504767224662px" fill="#1e1e1e" text-anchor="start" style="white-space: pre;" direction="ltr" dominant-baseline="text-before-edge">    command: ["/bin/bash"]</text></g><g stroke-linecap="round" transform="translate(985.056349088821 1332.5218710749286) rotate(0 79.9795215993181 20.989077038228743)"><path d="M10.49 0 C65.79 0, 121.09 0, 149.46 0 M10.49 0 C45 0, 79.51 0, 149.46 0 M149.46 0 C156.46 0, 159.96 3.5, 159.96 10.49 M149.46 0 C156.46 0, 159.96 3.5, 159.96 10.49 M159.96 10.49 C159.96 16.57, 159.96 22.65, 159.96 31.48 M159.96 10.49 C159.96 15.86, 159.96 21.23, 159.96 31.48 M159.96 31.48 C159.96 38.48, 156.46 41.98, 149.46 41.98 M159.96 31.48 C159.96 38.48, 156.46 41.98, 149.46 41.98 M149.46 41.98 C101.69 41.98, 53.92 41.98, 10.49 41.98 M149.46 41.98 C119.85 41.98, 90.23 41.98, 10.49 41.98 M10.49 41.98 C3.5 41.98, 0 38.48, 0 31.48 M10.49 41.98 C3.5 41.98, 0 38.48, 0 31.48 M0 31.48 C0 26.55, 0 21.62, 0 10.49 M0 31.48 C0 23.95, 0 16.43, 0 10.49 M0 10.49 C0 3.5, 3.5 0, 10.49 0 M0 10.49 C0 3.5, 3.5 0, 10.49 0" stroke="#1e1e1e" stroke-width="1" fill="none"></path></g><g transform="translate(1005.6196335229683 1347.7528592982449) rotate(0 56.8037109375 5.063102860334766)"><text x="0" y="0" font-family="Cascadia, Segoe UI Emoji" font-size="8.438504767224662px" fill="#1e1e1e" text-anchor="start" style="white-space: pre;" direction="ltr" dominant-baseline="text-before-edge">docker compose run --rm</text></g><g stroke-linecap="round" transform="translate(615.927018520985 1334.5680282682356) rotate(0 79.9795215993181 20.989077038228743)"><path d="M10.49 0 C53.19 0, 95.89 0, 149.46 0 M10.49 0 C38.81 0, 67.12 0, 149.46 0 M149.46 0 C156.46 0, 159.96 3.5, 159.96 10.49 M149.46 0 C156.46 0, 159.96 3.5, 159.96 10.49 M159.96 10.49 C159.96 17.6, 159.96 24.7, 159.96 31.48 M159.96 10.49 C159.96 17.38, 159.96 24.26, 159.96 31.48 M159.96 31.48 C159.96 38.48, 156.46 41.98, 149.46 41.98 M159.96 31.48 C159.96 38.48, 156.46 41.98, 149.46 41.98 M149.46 41.98 C113.64 41.98, 77.81 41.98, 10.49 41.98 M149.46 41.98 C110.74 41.98, 72.01 41.98, 10.49 41.98 M10.49 41.98 C3.5 41.98, 0 38.48, 0 31.48 M10.49 41.98 C3.5 41.98, 0 38.48, 0 31.48 M0 31.48 C0 25.5, 0 19.52, 0 10.49 M0 31.48 C0 24.06, 0 16.64, 0 10.49 M0 10.49 C0 3.5, 3.5 0, 10.49 0 M0 10.49 C0 3.5, 3.5 0, 10.49 0" stroke="#1e1e1e" stroke-width="1" fill="none"></path></g><g transform="translate(636.4903029551324 1349.7990164915518) rotate(0 41.9853515625 5.063102860334766)"><text x="0" y="0" font-family="Cascadia, Segoe UI Emoji" font-size="8.438504767224662px" fill="#1e1e1e" text-anchor="start" style="white-space: pre;" direction="ltr" dominant-baseline="text-before-edge">docker compose up</text></g><g transform="translate(123.99454963717199 390.8492765445227) rotate(0 120.9296875 9.200000000000003)"><text x="241.859375" y="0" font-family="Helvetica, Segoe UI Emoji" font-size="16px" fill="#1e1e1e" text-anchor="end" style="white-space: pre;" direction="ltr" dominant-baseline="text-before-edge">Add files README, LICENSE, etc</text></g><g transform="translate(215.6343747766864 289.95110695643723) rotate(0 63.14453125 9.2)"><text x="63.14453125" y="0" font-family="Helvetica, Segoe UI Emoji" font-size="16px" fill="#1e1e1e" text-anchor="middle" style="white-space: pre;" direction="ltr" dominant-baseline="text-before-edge">https://github.com</text></g><g stroke-linecap="round"><g transform="translate(465.48544307952875 343.0225295816524) rotate(0 -0.4166296223647805 12.359888517951504)"><path d="M0.67 -0.3 C0.51 4.03, -1.53 21.43, -1.94 25.57 M-0.44 -1.51 C-0.16 2.53, 0.02 19.35, 0.2 23.89" stroke="#1e1e1e" stroke-width="2" fill="none"></path></g><g transform="translate(465.48544307952875 343.0225295816524) rotate(0 -0.4166296223647805 12.359888517951504)"><path d="M-4.62 11.24 C-2.5 13.88, -2.61 17.48, 1.42 23.54 M-4.79 11.86 C-2.96 15.28, -2.88 17.28, 0.58 23.37" stroke="#1e1e1e" stroke-width="2" fill="none"></path></g><g transform="translate(465.48544307952875 343.0225295816524) rotate(0 -0.4166296223647805 12.359888517951504)"><path d="M3.83 11.03 C4.12 13.77, 2.17 17.41, 1.42 23.54 M3.66 11.66 C3.75 15.05, 2.09 17.09, 0.58 23.37" stroke="#1e1e1e" stroke-width="2" fill="none"></path></g></g><mask></mask><g stroke-linecap="round"><g transform="translate(556.032043538499 404.3683842969503) rotate(0 22.743997054026522 0.4636480169562631)"><path d="M0.5 0.1 C8.1 0.08, 37.99 -0.39, 45.33 -0.15 M-0.69 -0.89 C6.75 -0.79, 36.36 0.75, 44.3 0.82" stroke="#1e1e1e" stroke-width="2" fill="none"></path></g><g transform="translate(556.032043538499 404.3683842969503) rotate(0 22.743997054026522 0.4636480169562631)"><path d="M22.86 7.65 C26.92 4.31, 35.78 4.67, 43.25 1.62 M22.51 7 C29.09 5.83, 36.02 4.34, 44.88 -0.02" stroke="#1e1e1e" stroke-width="2" fill="none"></path></g><g transform="translate(556.032043538499 404.3683842969503) rotate(0 22.743997054026522 0.4636480169562631)"><path d="M23.36 -7.9 C27.28 -6.9, 36 -2.2, 43.25 1.62 M23.01 -8.55 C29.56 -5.17, 36.34 -2.12, 44.88 -0.02" stroke="#1e1e1e" stroke-width="2" fill="none"></path></g></g><mask></mask><g stroke-linecap="round"><g transform="translate(701.0604376596 452.7716961484259) rotate(0 -1.1659196436330603 12.662892855498043)"><path d="M0.7 0.9 C0.32 5.22, -2.59 21.76, -2.92 25.89 M-0.39 0.32 C-0.31 4.3, -0.34 19.59, -0.51 24.06" stroke="#1e1e1e" stroke-width="2" fill="none"></path></g><g transform="translate(701.0604376596 452.7716961484259) rotate(0 -1.1659196436330603 12.662892855498043)"><path d="M-3.69 11.41 C-3.04 16.1, -2.28 17.15, -1 23.91 M-4.25 12.26 C-2.68 16.18, -1.88 20.36, -0.37 24.68" stroke="#1e1e1e" stroke-width="2" fill="none"></path></g><g transform="translate(701.0604376596 452.7716961484259) rotate(0 -1.1659196436330603 12.662892855498043)"><path d="M5.01 11.57 C3.53 16.27, 2.16 17.29, -1 23.91 M4.44 12.42 C2.87 16.23, 0.51 20.35, -0.37 24.68" stroke="#1e1e1e" stroke-width="2" fill="none"></path></g></g><mask></mask><g stroke-linecap="round"><g transform="translate(622.1745854493438 514.7124849706349) rotate(0 -43.14602368666169 -0.36981829886619266)"><path d="M-0.22 -1.04 C-15.08 -0.85, -71.7 0.19, -86.47 -0.09 M-3.79 -4.07 C-19.28 -4.66, -75.54 -5.31, -88.8 -4.74" stroke="#1e1e1e" stroke-width="2" fill="none"></path></g><g transform="translate(622.1745854493438 514.7124849706349) rotate(0 -43.14602368666169 -0.36981829886619266)"><path d="M-66.14 -13.66 C-74.24 -11.89, -85.37 -6.4, -87.94 -3.87 M-64.53 -13.79 C-71.53 -11.52, -75.33 -9.13, -88.69 -3.92" stroke="#1e1e1e" stroke-width="2" fill="none"></path></g><g transform="translate(622.1745854493438 514.7124849706349) rotate(0 -43.14602368666169 -0.36981829886619266)"><path d="M-65.97 3.44 C-74.05 -1.56, -85.26 -2.84, -87.94 -3.87 M-64.36 3.31 C-71.32 1.7, -75.16 0.21, -88.69 -3.92" stroke="#1e1e1e" stroke-width="2" fill="none"></path></g></g><mask></mask><g transform="translate(616.1522992044745 124.79876547167083) rotate(0 110.56640625 19.988785817883013)"><text x="0" y="0" font-family="Cascadia, Segoe UI Emoji" font-size="11.104881009935008px" fill="#1e1e1e" text-anchor="start" style="white-space: pre;" direction="ltr" dominant-baseline="text-before-edge">Also, check out </text><text x="0" y="13.32585721192201" font-family="Cascadia, Segoe UI Emoji" font-size="11.104881009935008px" fill="#1e1e1e" text-anchor="start" style="white-space: pre;" direction="ltr" dominant-baseline="text-before-edge">https://github.com/growlf/toolbox </text><text x="0" y="26.65171442384402" font-family="Cascadia, Segoe UI Emoji" font-size="11.104881009935008px" fill="#1e1e1e" text-anchor="start" style="white-space: pre;" direction="ltr" dominant-baseline="text-before-edge">for more ideas and trix.</text></g><g stroke-linecap="round"><g transform="translate(460.4285159448036 578.8451202351114) rotate(0 -0.40426401242734755 13.6981724589578)"><path d="M-0.47 -0.7 C-0.84 3.93, -1.47 22.95, -1.72 27.59 M1.49 1.55 C1.44 6.41, 0.7 24.77, 0.52 29.22" stroke="#1e1e1e" stroke-width="2" fill="none"></path></g><g transform="translate(460.4285159448036 578.8451202351114) rotate(0 -0.40426401242734755 13.6981724589578)"><path d="M-4.44 15.13 C-2.02 19.36, -1.14 26.31, 0 28.85 M-4.29 15.81 C-2.11 20.66, -1.39 24.7, 0.55 29.12" stroke="#1e1e1e" stroke-width="2" fill="none"></path></g><g transform="translate(460.4285159448036 578.8451202351114) rotate(0 -0.40426401242734755 13.6981724589578)"><path d="M4.92 15.51 C4.14 19.57, 1.82 26.39, 0 28.85 M5.08 16.19 C4.28 20.85, 2.02 24.77, 0.55 29.12" stroke="#1e1e1e" stroke-width="2" fill="none"></path></g></g><mask></mask><g stroke-linecap="round"><g transform="translate(573.8333366115105 656.173360898865) rotate(0 23.41938980213149 0.8837378368964437)"><path d="M0.23 1.04 C7.93 1.24, 38.41 1.98, 46.02 1.98 M-1.11 0.55 C6.99 0.29, 40.08 -0.27, 48.31 -0.04" stroke="#1e1e1e" stroke-width="2" fill="none"></path></g><g transform="translate(573.8333366115105 656.173360898865) rotate(0 23.41938980213149 0.8837378368964437)"><path d="M28.01 6.57 C32.78 4.07, 37.42 2.23, 46.43 -1.64 M25.35 8.53 C32.13 5.12, 38.88 3.96, 48.16 -0.97" stroke="#1e1e1e" stroke-width="2" fill="none"></path></g><g transform="translate(573.8333366115105 656.173360898865) rotate(0 23.41938980213149 0.8837378368964437)"><path d="M28.05 -9.46 C32.91 -7.44, 37.55 -4.76, 46.43 -1.64 M25.39 -7.51 C32.27 -6.39, 39.01 -3.02, 48.16 -0.97" stroke="#1e1e1e" stroke-width="2" fill="none"></path></g></g><mask></mask><g stroke-linecap="round"><g transform="translate(604.764632877012 794.9434291099733) rotate(0 -26.512539656143986 4.851842234237807)"><path d="M-1.29 -1.36 C-10.87 0.62, -46.95 9.63, -55.12 11.78 M3.21 4.07 C-5.72 5.29, -40.88 7.4, -49.85 7.89" stroke="#1e1e1e" stroke-width="2" fill="none"></path></g><g transform="translate(604.764632877012 794.9434291099733) rotate(0 -26.512539656143986 4.851842234237807)"><path d="M-27.87 -3.52 C-34.29 3.66, -43.34 5.29, -51.11 6.78 M-26.68 -1.42 C-35.3 0.68, -43.82 5.89, -50.65 8.79" stroke="#1e1e1e" stroke-width="2" fill="none"></path></g><g transform="translate(604.764632877012 794.9434291099733) rotate(0 -26.512539656143986 4.851842234237807)"><path d="M-26.87 13.55 C-33.67 14.13, -43.11 9.16, -51.11 6.78 M-25.67 15.65 C-34.77 11.81, -43.63 11.07, -50.65 8.79" stroke="#1e1e1e" stroke-width="2" fill="none"></path></g></g><mask></mask><g stroke-linecap="round"><g transform="translate(550.1079937336053 833.2234950085667) rotate(0 8.548603981934548 34.31133987924994)"><path d="M-0.01 -0.38 C3.09 3.24, 19.12 12.26, 19.84 23.77 C20.57 35.28, 6.06 61.58, 4.32 68.69 M-3.47 -3.06 C-0.6 -0.44, 16.87 7.11, 19.1 19.59 C21.33 32.07, 12.62 63.8, 9.9 71.84" stroke="#1e1e1e" stroke-width="2" fill="none"></path></g><g transform="translate(550.1079937336053 833.2234950085667) rotate(0 8.548603981934548 34.31133987924994)"><path d="M8.02 50.08 C10.11 54.65, 9.63 66.45, 8.35 70.99 M7.89 47.83 C9.3 52.62, 8.07 57.92, 9.18 71.89" stroke="#1e1e1e" stroke-width="2" fill="none"></path></g><g transform="translate(550.1079937336053 833.2234950085667) rotate(0 8.548603981934548 34.31133987924994)"><path d="M23.64 54.59 C20.32 57.61, 14.45 67.85, 8.35 70.99 M23.52 52.34 C21.68 56.18, 17.2 60.54, 9.18 71.89" stroke="#1e1e1e" stroke-width="2" fill="none"></path></g></g><mask></mask><g stroke-linecap="round"><g transform="translate(712.5822671753815 697.2677771384258) rotate(0 0.22095131544290325 29.60567265393803)"><path d="M2.72 -1.53 C3.12 8.19, 2.86 48.98, 2.14 58.69 M0.75 3.81 C0.95 13.93, 0.27 52.93, 0.82 62.04" stroke="#1e1e1e" stroke-width="2" fill="none"></path></g><g transform="translate(712.5822671753815 697.2677771384258) rotate(0 0.22095131544290325 29.60567265393803)"><path d="M-9.17 39.88 C-5.84 43.86, -4.67 53.44, 1.55 62.45 M-7.46 39.54 C-4.91 48.68, -0.37 57.75, 0.3 61.73" stroke="#1e1e1e" stroke-width="2" fill="none"></path></g><g transform="translate(712.5822671753815 697.2677771384258) rotate(0 0.22095131544290325 29.60567265393803)"><path d="M7.93 39.63 C6.3 43.85, 2.51 53.5, 1.55 62.45 M9.64 39.29 C5.45 48.63, 3.25 57.81, 0.3 61.73" stroke="#1e1e1e" stroke-width="2" fill="none"></path></g></g><mask></mask><g transform="translate(25.865778880401194 482.88650793678147) rotate(0 153.123046875 55.694131463682766)"><text x="0" y="0" font-family="Cascadia, Segoe UI Emoji" font-size="8.438504767224662px" fill="#1e1e1e" text-anchor="start" style="white-space: pre;" direction="ltr" dominant-baseline="text-before-edge">FROM python:3.12-slim-bullseye</text><text x="0" y="10.126205720669594" font-family="Cascadia, Segoe UI Emoji" font-size="8.438504767224662px" fill="#1e1e1e" text-anchor="start" style="white-space: pre;" direction="ltr" dominant-baseline="text-before-edge"></text><text x="0" y="20.252411441339188" font-family="Cascadia, Segoe UI Emoji" font-size="8.438504767224662px" fill="#1e1e1e" text-anchor="start" style="white-space: pre;" direction="ltr" dominant-baseline="text-before-edge">WORKDIR /app</text><text x="0" y="30.37861716200878" font-family="Cascadia, Segoe UI Emoji" font-size="8.438504767224662px" fill="#1e1e1e" text-anchor="start" style="white-space: pre;" direction="ltr" dominant-baseline="text-before-edge"></text><text x="0" y="40.504822882678376" font-family="Cascadia, Segoe UI Emoji" font-size="8.438504767224662px" fill="#1e1e1e" text-anchor="start" style="white-space: pre;" direction="ltr" dominant-baseline="text-before-edge">COPY requirements.txt requirements.txt</text><text x="0" y="50.63102860334797" font-family="Cascadia, Segoe UI Emoji" font-size="8.438504767224662px" fill="#1e1e1e" text-anchor="start" style="white-space: pre;" direction="ltr" dominant-baseline="text-before-edge">RUN pip3 install -r requirements.txt</text><text x="0" y="60.75723432401756" font-family="Cascadia, Segoe UI Emoji" font-size="8.438504767224662px" fill="#1e1e1e" text-anchor="start" style="white-space: pre;" direction="ltr" dominant-baseline="text-before-edge"></text><text x="0" y="70.88344004468716" font-family="Cascadia, Segoe UI Emoji" font-size="8.438504767224662px" fill="#1e1e1e" text-anchor="start" style="white-space: pre;" direction="ltr" dominant-baseline="text-before-edge">COPY . .</text><text x="0" y="81.00964576535675" font-family="Cascadia, Segoe UI Emoji" font-size="8.438504767224662px" fill="#1e1e1e" text-anchor="start" style="white-space: pre;" direction="ltr" dominant-baseline="text-before-edge"></text><text x="0" y="91.13585148602634" font-family="Cascadia, Segoe UI Emoji" font-size="8.438504767224662px" fill="#1e1e1e" text-anchor="start" style="white-space: pre;" direction="ltr" dominant-baseline="text-before-edge">CMD [ "python3", "-m" , "flask", "run", "--host=0.0.0.0:5000"]</text><text x="0" y="101.26205720669594" font-family="Cascadia, Segoe UI Emoji" font-size="8.438504767224662px" fill="#1e1e1e" text-anchor="start" style="white-space: pre;" direction="ltr" dominant-baseline="text-before-edge"></text></g><g stroke-linecap="round" transform="translate(10 469.7018117565221) rotate(0 165.92432416634358 64.29290529490572)"><path d="M32 0 C92.45 0, 152.89 0, 299.85 0 M32 0 C92.07 0, 152.15 0, 299.85 0 M299.85 0 C321.18 0, 331.85 10.67, 331.85 32 M299.85 0 C321.18 0, 331.85 10.67, 331.85 32 M331.85 32 C331.85 53.71, 331.85 75.41, 331.85 96.59 M331.85 32 C331.85 53.81, 331.85 75.62, 331.85 96.59 M331.85 96.59 C331.85 117.92, 321.18 128.59, 299.85 128.59 M331.85 96.59 C331.85 117.92, 321.18 128.59, 299.85 128.59 M299.85 128.59 C215.7 128.59, 131.55 128.59, 32 128.59 M299.85 128.59 C225.25 128.59, 150.66 128.59, 32 128.59 M32 128.59 C10.67 128.59, 0 117.92, 0 96.59 M32 128.59 C10.67 128.59, 0 117.92, 0 96.59 M0 96.59 C0 75.26, 0 53.94, 0 32 M0 96.59 C0 74.74, 0 52.89, 0 32 M0 32 C0 10.67, 10.67 0, 32 0 M0 32 C0 10.67, 10.67 0, 32 0" stroke="#1e1e1e" stroke-width="1" fill="none"></path></g><g transform="translate(852.4519800621777 640.9149217751278) rotate(0 32.1064453125 15.189308581004383)"><text x="0" y="0" font-family="Cascadia, Segoe UI Emoji" font-size="8.438504767224662px" fill="#1e1e1e" text-anchor="start" style="white-space: pre;" direction="ltr" dominant-baseline="text-before-edge">Flask==3.0.0</text><text x="0" y="10.126205720669594" font-family="Cascadia, Segoe UI Emoji" font-size="8.438504767224662px" fill="#1e1e1e" text-anchor="start" style="white-space: pre;" direction="ltr" dominant-baseline="text-before-edge">invoke==2.2.0</text><text x="0" y="20.252411441339188" font-family="Cascadia, Segoe UI Emoji" font-size="8.438504767224662px" fill="#1e1e1e" text-anchor="start" style="white-space: pre;" direction="ltr" dominant-baseline="text-before-edge"></text></g><g stroke-linecap="round" transform="translate(838.0749953360555 622.1490496291008) rotate(0 103.17799379844416 28.280015329937072)"><path d="M14.14 0 C74.16 0, 134.19 0, 192.22 0 M14.14 0 C49.91 0, 85.67 0, 192.22 0 M192.22 0 C201.64 0, 206.36 4.71, 206.36 14.14 M192.22 0 C201.64 0, 206.36 4.71, 206.36 14.14 M206.36 14.14 C206.36 23.69, 206.36 33.24, 206.36 42.42 M206.36 14.14 C206.36 24.69, 206.36 35.24, 206.36 42.42 M206.36 42.42 C206.36 51.85, 201.64 56.56, 192.22 56.56 M206.36 42.42 C206.36 51.85, 201.64 56.56, 192.22 56.56 M192.22 56.56 C132.14 56.56, 72.07 56.56, 14.14 56.56 M192.22 56.56 C144.51 56.56, 96.81 56.56, 14.14 56.56 M14.14 56.56 C4.71 56.56, 0 51.85, 0 42.42 M14.14 56.56 C4.71 56.56, 0 51.85, 0 42.42 M0 42.42 C0 35.69, 0 28.97, 0 14.14 M0 42.42 C0 35.96, 0 29.5, 0 14.14 M0 14.14 C0 4.71, 4.71 0, 14.14 0 M0 14.14 C0 4.71, 4.71 0, 14.14 0" stroke="#1e1e1e" stroke-width="1" fill="none"></path></g><g stroke-linecap="round"><g transform="translate(197.35525326680158 701.6865337477832) rotate(0 81.52606281388694 -1.1046554399018191)"><path d="M0 0 C6.04 -4.05, 9.06 -27.99, 36.23 -24.3 C63.41 -20.62, 141.92 14.36, 163.05 22.09" stroke="#1e1e1e" stroke-width="1.5" fill="none" stroke-dasharray="1.5 7"></path></g><g transform="translate(197.35525326680158 701.6865337477832) rotate(0 81.52606281388694 -1.1046554399018191)"><path d="M138.07 21.24 C146.58 21.53, 155.09 21.82, 163.05 22.09" stroke="#1e1e1e" stroke-width="1.5" fill="none" stroke-dasharray="1.5 5"></path></g><g transform="translate(197.35525326680158 701.6865337477832) rotate(0 81.52606281388694 -1.1046554399018191)"><path d="M144.46 5.38 C150.8 11.07, 157.13 16.77, 163.05 22.09" stroke="#1e1e1e" stroke-width="1.5" fill="none" stroke-dasharray="1.5 5"></path></g></g><mask></mask><g stroke-linecap="round"><g transform="translate(937.0551838405852 605.3576598912553) rotate(0 -71.58387729905166 -7.5118727509324685)"><path d="M0 0 C-3.61 -3.68, 2.21 -23.27, -21.65 -22.09 C-45.51 -20.92, -122.92 2.21, -143.17 7.07" stroke="#1e1e1e" stroke-width="1.5" fill="none" stroke-dasharray="1.5 7"></path></g><g transform="translate(937.0551838405852 605.3576598912553) rotate(0 -71.58387729905166 -7.5118727509324685)"><path d="M-122.69 -7.27 C-127.49 -3.91, -132.29 -0.55, -143.17 7.07" stroke="#1e1e1e" stroke-width="1.5" fill="none" stroke-dasharray="1.5 5"></path></g><g transform="translate(937.0551838405852 605.3576598912553) rotate(0 -71.58387729905166 -7.5118727509324685)"><path d="M-118.26 9.25 C-124.1 8.74, -129.94 8.23, -143.17 7.07" stroke="#1e1e1e" stroke-width="1.5" fill="none" stroke-dasharray="1.5 5"></path></g></g><mask></mask><g stroke-linecap="round"><g transform="translate(160.67354938832977 448.0499144844023) rotate(0 117.54194119055228 -1.7675093862304152)"><path d="M0 0 C5.45 -3.31, -6.48 -22.61, 32.7 -19.88 C71.89 -17.16, 201.35 10.31, 235.08 16.35" stroke="#1e1e1e" stroke-width="1.5" fill="none" stroke-dasharray="1.5 7"></path></g><g transform="translate(160.67354938832977 448.0499144844023) rotate(0 117.54194119055228 -1.7675093862304152)"><path d="M210.39 20.25 C217.79 19.08, 225.19 17.91, 235.08 16.35" stroke="#1e1e1e" stroke-width="1.5" fill="none" stroke-dasharray="1.5 5"></path></g><g transform="translate(160.67354938832977 448.0499144844023) rotate(0 117.54194119055228 -1.7675093862304152)"><path d="M213.66 3.46 C220.08 7.33, 226.5 11.19, 235.08 16.35" stroke="#1e1e1e" stroke-width="1.5" fill="none" stroke-dasharray="1.5 5"></path></g></g><mask></mask><g stroke-linecap="round"><g transform="translate(479.4905545628783 996.7475615181227) rotate(0 -32.089028494225545 14.19595441860315)"><path d="M-2.28 0.74 C-13.18 5.69, -56.24 24.16, -66.33 28.92 M1.68 -1.32 C-8.27 2.79, -50.17 19.93, -61.09 24.19" stroke="#1e1e1e" stroke-width="2" fill="none"></path></g><g transform="translate(479.4905545628783 996.7475615181227) rotate(0 -32.089028494225545 14.19595441860315)"><path d="M-41.94 5.98 C-47.12 12.81, -51.83 14.83, -60.71 23.49 M-42.15 7.22 C-49.49 13.21, -55.13 17.77, -60.85 24.74" stroke="#1e1e1e" stroke-width="2" fill="none"></path></g><g transform="translate(479.4905545628783 996.7475615181227) rotate(0 -32.089028494225545 14.19595441860315)"><path d="M-35.57 21.85 C-42.41 24.39, -48.82 22.16, -60.71 23.49 M-35.78 23.09 C-45.34 23.78, -53.1 23.07, -60.85 24.74" stroke="#1e1e1e" stroke-width="2" fill="none"></path></g></g><mask></mask><g stroke-linecap="round"><g transform="translate(644.4342368055925 985.819296018353) rotate(0 48.41844363656912 22.070780308363908)"><path d="M1.42 1.61 C17.83 9.22, 81.58 38.55, 97.71 45.53 M-1.26 0.02 C14.93 6.81, 79.54 33.57, 95.95 41.28" stroke="#1e1e1e" stroke-width="2" fill="none"></path></g><g transform="translate(644.4342368055925 985.819296018353) rotate(0 48.41844363656912 22.070780308363908)"><path d="M72.15 40.31 C78.79 40.99, 84.12 41.43, 96.27 39.31 M71.49 40.22 C79.16 39.25, 88.68 40.12, 96.13 41.98" stroke="#1e1e1e" stroke-width="2" fill="none"></path></g><g transform="translate(644.4342368055925 985.819296018353) rotate(0 48.41844363656912 22.070780308363908)"><path d="M79.01 24.65 C83.77 29.62, 87.24 34.33, 96.27 39.31 M78.35 24.56 C83.65 29.12, 90.77 35.45, 96.13 41.98" stroke="#1e1e1e" stroke-width="2" fill="none"></path></g></g><mask></mask><g transform="translate(551.4914796464734 1059.6175570069113) rotate(0 19.655990600585938 17.5)"><text x="39.311981201171875" y="0" font-family="Virgil, Segoe UI Emoji" font-size="28px" fill="#1971c2" text-anchor="end" style="white-space: pre;" direction="ltr" dominant-baseline="text-before-edge">OR</text></g><g stroke-linecap="round"><g transform="translate(351.78717683982063 1115.7239808471547) rotate(0 -3.2282831057726753 29.38473819471386)"><path d="M-1.74 0.32 C-2.99 9.84, -7.52 46.33, -8.34 55.99 M2.52 -1.97 C2.24 7.88, -1.11 47.6, -2.97 58.11" stroke="#1e1e1e" stroke-width="2" fill="none"></path></g><g transform="translate(351.78717683982063 1115.7239808471547) rotate(0 -3.2282831057726753 29.38473819471386)"><path d="M-8.33 32.4 C-9.14 40.19, -5.99 48.62, -2.74 56.6 M-8.21 32.95 C-6.72 39.94, -4.6 46.97, -3.04 58.13" stroke="#1e1e1e" stroke-width="2" fill="none"></path></g><g transform="translate(351.78717683982063 1115.7239808471547) rotate(0 -3.2282831057726753 29.38473819471386)"><path d="M8.64 34.5 C3.26 41.62, 1.83 49.48, -2.74 56.6 M8.77 35.05 C5.6 41.51, 3.07 47.96, -3.04 58.13" stroke="#1e1e1e" stroke-width="2" fill="none"></path></g></g><mask></mask><g stroke-linecap="round"><g transform="translate(868.862421438459 1140.4691459668186) rotate(0 -0.6354140971058087 17.89592718421602)"><path d="M-0.73 0.98 C-0.96 6.75, -1.96 29.31, -2.02 35.2 M1.08 0.44 C1.3 6.32, 0.78 30.8, 0.29 36.43" stroke="#1e1e1e" stroke-width="2" fill="none"></path></g><g transform="translate(868.862421438459 1140.4691459668186) rotate(0 -0.6354140971058087 17.89592718421602)"><path d="M-3.58 18.21 C-4.53 23.77, -1.57 26.57, 1.01 34.84 M-5.37 18.54 C-3.33 23.93, -2.74 27.16, 0.76 35.78" stroke="#1e1e1e" stroke-width="2" fill="none"></path></g><g transform="translate(868.862421438459 1140.4691459668186) rotate(0 -0.6354140971058087 17.89592718421602)"><path d="M8.65 18.78 C4.69 24.12, 4.64 26.78, 1.01 34.84 M6.87 19.11 C6.05 24.29, 3.79 27.38, 0.76 35.78" stroke="#1e1e1e" stroke-width="2" fill="none"></path></g></g><mask></mask><g stroke-linecap="round"><g transform="translate(358.19793316502205 1243.867922518518) rotate(0 -0.6628202338911251 18.779715589768728)"><path d="M0.68 -1.11 C0.54 5.14, -0.62 31.62, -1.13 38 M-0.43 0.92 C-0.67 6.77, -2.04 29.88, -1.97 36.11" stroke="#1e1e1e" stroke-width="2" fill="none"></path></g><g transform="translate(358.19793316502205 1243.867922518518) rotate(0 -0.6628202338911251 18.779715589768728)"><path d="M-9.65 18.59 C-5.53 21.46, -5.21 28.77, -0.47 37.33 M-8.14 18.56 C-6.61 22.98, -4.32 26.32, -2.51 35.51" stroke="#1e1e1e" stroke-width="2" fill="none"></path></g><g transform="translate(358.19793316502205 1243.867922518518) rotate(0 -0.6628202338911251 18.779715589768728)"><path d="M3.2 18.95 C3.82 21.79, 0.63 29.01, -0.47 37.33 M4.7 18.92 C3.3 23.35, 2.65 26.62, -2.51 35.51" stroke="#1e1e1e" stroke-width="2" fill="none"></path></g></g><mask></mask><g stroke-linecap="round" transform="translate(479.71387477209896 908.9262928940054) rotate(0 79.97945417444316 67.38603829269948)"><path d="M100 17 C115.86 25.29, 119.3 32.43, 139.96 51 C161.63 63.49, 157.53 66.73, 139.96 85 C127.41 91.15, 119.31 101.2, 100 117.77 C84.34 133.04, 78.93 138.71, 60 117.77 C44.8 113.43, 38.11 103.56, 20 85 C-0.71 67.31, 2.25 63, 20 51 C34.65 42.85, 46.66 23.56, 60 17 C74.59 0.55, 80.71 -1.08, 100 17" stroke="none" stroke-width="0" fill="#b2f2bb"></path><path d="M100 17 C114.12 25.79, 118.92 35.58, 139.96 51 M100 17 C113.17 30.71, 128.65 43.27, 139.96 51 M139.96 51 C163.46 71.69, 161.28 65.17, 139.96 85 M139.96 51 C163.62 72.55, 155.84 72.23, 139.96 85 M139.96 85 C127.28 96.12, 107.84 108.71, 100 117.77 M139.96 85 C125.48 98.81, 109.75 110.75, 100 117.77 M100 117.77 C79.26 137.93, 82.22 136.01, 60 117.77 M100 117.77 C83.8 132.97, 82.62 135.96, 60 117.77 M60 117.77 C52.81 114.97, 43.43 101.54, 20 85 M60 117.77 C50.38 107.21, 38.77 99.21, 20 85 M20 85 C2.85 65.92, -1.14 70.06, 20 51 M20 85 C-2.62 63.62, -0.89 72.16, 20 51 M20 51 C32.71 37.48, 41.38 32.54, 60 17 M20 51 C28.82 42.21, 37.24 34.59, 60 17 M60 17 C80.43 -2.15, 81.78 3.72, 100 17 M60 17 C81.39 -2.73, 77.91 -1.99, 100 17" stroke="#2f9e44" stroke-width="2" fill="none"></path></g><g transform="translate(502.8352532010581 961.4734673529683) rotate(0 57.38995361328125 12.5)"><text x="57.38995361328125" y="0" font-family="Virgil, Segoe UI Emoji" font-size="20px" fill="#2f9e44" text-anchor="middle" style="white-space: pre;" direction="ltr" dominant-baseline="text-before-edge">Build Image</text></g><g stroke-linecap="round" transform="translate(788.8636163157416 1184.493558373895) rotate(0 79.97945417444316 67.38603829269948)"><path d="M100 17 C113.63 27.83, 119.4 35.8, 139.96 51 C161.48 72.55, 154.87 62.96, 139.96 85 C120.18 100.8, 112.46 105.81, 100 117.77 C76.09 139.54, 76.08 139.49, 60 117.77 C42.2 109.02, 31.82 95.47, 20 85 C-0.36 64.56, -2.52 72.17, 20 51 C27.09 44.65, 44.98 28.95, 60 17 C84.36 3, 78.72 -1.78, 100 17" stroke="none" stroke-width="0" fill="#b2f2bb"></path><path d="M100 17 C113.88 27.89, 122.11 36.68, 139.96 51 M100 17 C115.98 28.54, 127.12 39.84, 139.96 51 M139.96 51 C156.12 69.42, 162.56 71.64, 139.96 85 M139.96 51 C159.09 71.66, 162.77 65.05, 139.96 85 M139.96 85 C131.97 91.62, 117.88 100.97, 100 117.77 M139.96 85 C129.33 95.66, 114.18 104.51, 100 117.77 M100 117.77 C83.68 137.9, 76.01 136.45, 60 117.77 M100 117.77 C77.08 138.73, 82.24 131.75, 60 117.77 M60 117.77 C52.1 114.19, 40.75 107.93, 20 85 M60 117.77 C46.97 107.11, 33.35 93.96, 20 85 M20 85 C3.07 70.84, 0.3 64.38, 20 51 M20 85 C0.7 65.39, -1.1 65.39, 20 51 M20 51 C37.85 37.47, 49.57 25.16, 60 17 M20 51 C33.84 39.58, 49.23 24.82, 60 17 M60 17 C79.34 1, 81.01 -3.74, 100 17 M60 17 C78.37 0.83, 79.87 -2.86, 100 17" stroke="#2f9e44" stroke-width="2" fill="none"></path></g><g transform="translate(823.4274431011108 1222.9007251678893) rotate(0 44.179962158203125 25)"><text x="44.179962158203125" y="0" font-family="Virgil, Segoe UI Emoji" font-size="20px" fill="#2f9e44" text-anchor="middle" style="white-space: pre;" direction="ltr" dominant-baseline="text-before-edge">Run</text><text x="44.179962158203125" y="25" font-family="Virgil, Segoe UI Emoji" font-size="20px" fill="#2f9e44" text-anchor="middle" style="white-space: pre;" direction="ltr" dominant-baseline="text-before-edge">container</text></g><g stroke-linecap="round"><g transform="translate(812.8880287228185 1299.9861853972563) rotate(0 -24.96594787291906 9.72128476804869)"><path d="M0.66 0.98 C-7.36 3.77, -40.23 15.09, -48.97 18.53 M-2.43 -0.95 C-10.66 2.06, -43.44 18.63, -50.69 21.66" stroke="#1e1e1e" stroke-width="2" fill="none"></path></g><g transform="translate(812.8880287228185 1299.9861853972563) rotate(0 -24.96594787291906 9.72128476804869)"><path d="M-32.34 4.64 C-38.33 7.44, -40.88 12.56, -49.45 20.24 M-33.25 4.19 C-38.78 9.51, -45.64 15.06, -50.17 21.76" stroke="#1e1e1e" stroke-width="2" fill="none"></path></g><g transform="translate(812.8880287228185 1299.9861853972563) rotate(0 -24.96594787291906 9.72128476804869)"><path d="M-25.09 20.13 C-33.13 18.78, -37.63 19.73, -49.45 20.24 M-26 19.67 C-33.89 19.73, -43.19 20.04, -50.17 21.76" stroke="#1e1e1e" stroke-width="2" fill="none"></path></g></g><mask></mask><g stroke-linecap="round"><g transform="translate(925.5663896863059 1292.9162152772094) rotate(0 36.23379071175532 13.477187431077482)"><path d="M-1.47 0.29 C10.3 4.93, 57.32 21.14, 69.8 25.89 M2.93 -2.02 C15.59 3.18, 63.22 24.57, 74.75 28.95" stroke="#1e1e1e" stroke-width="2" fill="none"></path></g><g transform="translate(925.5663896863059 1292.9162152772094) rotate(0 36.23379071175532 13.477187431077482)"><path d="M49.99 25.84 C55.81 28.88, 64.69 28.15, 74.59 30.59 M50.17 27.56 C54.42 28.62, 60.43 29.22, 75.01 29.18" stroke="#1e1e1e" stroke-width="2" fill="none"></path></g><g transform="translate(925.5663896863059 1292.9162152772094) rotate(0 36.23379071175532 13.477187431077482)"><path d="M56.6 10.07 C60.52 17.37, 67.59 20.94, 74.59 30.59 M56.79 11.8 C59.76 16.21, 64.35 20.22, 75.01 29.18" stroke="#1e1e1e" stroke-width="2" fill="none"></path></g></g><mask></mask></svg>